<?xml version="1.0" standalone="no"?><!DOCTYPE svg PUBLIC "-//W3C//DTD SVG 1.1//EN" "http://www.w3.org/Graphics/SVG/1.1/DTD/svg11.dtd"><svg t="1573113194306" class="icon" viewBox="0 0 1024 1024" version="1.1" xmlns="http://www.w3.org/2000/svg" p-id="1914" xmlns:xlink="http://www.w3.org/1999/xlink" width="200" height="200"><defs><style type="text/css"></style></defs><path d="M512 960c-12.8 0-24-4.8-33.6-14.4l-1.6-1.6-257.6-328c-9.6-14.4-9.6-32-1.6-48 8-14.4 24-24 40-24H384V156.8C384 123.2 411.2 96 444.8 96h134.4C612.8 96 640 123.2 640 156.8V544h124.8c20.8 0 36.8 11.2 44.8 28.8 6.4 16 3.2 35.2-8 48L640 828.8c-11.2 14.4-30.4 16-44.8 4.8-14.4-11.2-16-30.4-4.8-44.8L729.6 608H576V160h-128v448h-153.6L512 886.4l8-11.2c11.2-14.4 30.4-16 44.8-4.8 14.4 11.2 16 30.4 4.8 44.8l-25.6 32c-6.4 8-19.2 12.8-32 12.8z" fill="#0078E5" p-id="1915"></path></svg>